<svg xmlns="http://www.w3.org/2000/svg" xmlns:xlink="http://www.w3.org/1999/xlink" version="1.1" enable-background="new 0 0 1000 1000" xml:space="preserve" width="1000" height="1000"><rect id="backgroundrect" width="100%" height="100%" x="0" y="0" fill="none" stroke="none"/>
<metadata> Svg Vector Icons : http://www.onlinewebfonts.com/icon </metadata>

<g class="currentLayer" style=""><title>Layer 1</title><g id="svg_1" class="selected" fill-opacity="1" fill="#bf0711"><g id="svg_2" fill="#bf0711"><path d="M990,500c0-270.6-219.4-490-490-490C229.4,10,10,229.4,10,500c0,270.6,219.4,490,490,490C770.6,990,990,770.6,990,500z M54.5,500C54.5,254,254,54.5,500,54.5S945.5,254,945.5,500S746,945.5,500,945.5S54.5,746,54.5,500z" id="svg_3" fill="#bf0711"/><path d="M518.8,782.8V500h93.3l14.7-93.7H518.8v-47c0-24.5,8-47.8,43.1-47.8h70.2v-93.5h-99.6c-83.7,0-106.6,55.1-106.6,131.6v56.7h-57.5V500h57.5v282.8H518.8L518.8,782.8z" id="svg_4" fill="#bf0711"/></g><g id="svg_5" fill="#bf0711"/><g id="svg_6" fill="#bf0711"/><g id="svg_7" fill="#bf0711"/><g id="svg_8" fill="#bf0711"/><g id="svg_9" fill="#bf0711"/><g id="svg_10" fill="#bf0711"/><g id="svg_11" fill="#bf0711"/><g id="svg_12" fill="#bf0711"/><g id="svg_13" fill="#bf0711"/><g id="svg_14" fill="#bf0711"/><g id="svg_15" fill="#bf0711"/><g id="svg_16" fill="#bf0711"/><g id="svg_17" fill="#bf0711"/><g id="svg_18" fill="#bf0711"/><g id="svg_19" fill="#bf0711"/></g></g></svg>