<svg height="512pt" viewBox="0 0 512 512.00028" width="512pt" xmlns="http://www.w3.org/2000/svg"><path d="m236.394531 269.1875c0 4.175781 3.390625 7.566406 7.566407 7.566406h59.441406c4.175781 0 7.566406-3.390625 7.566406-7.566406 0-4.179688-3.390625-7.570312-7.566406-7.570312h-59.441406c-4.175782 0-7.566407 3.390624-7.566407 7.570312zm0 0"/><path d="m44.6875 269.1875c0 4.175781 3.390625 7.566406 7.566406 7.566406h161.4375c4.179688 0 7.570313-3.390625 7.570313-7.566406 0-4.179688-3.390625-7.570312-7.570313-7.570312h-161.4375c-4.175781 0-7.566406 3.390624-7.566406 7.570312zm0 0"/><path d="m355.65625 265.675781v-244.527343c0-11.664063-9.484375-21.148438-21.148438-21.148438h-313.359374c-11.664063 0-21.148438 9.484375-21.148438 21.148438v81.261718c0 4.179688 3.390625 7.570313 7.566406 7.570313 4.179688 0 7.570313-3.390625 7.570313-7.570313v-81.261718c0-3.320313 2.691406-6.015626 6.011719-6.015626h313.359374c3.308594 0 6.015626 2.695313 6.015626 6.015626v249.371093c-25.207032 9.917969-46.433594 27.785157-60.589844 50.507813h-227.679688c-4.175781 0-7.566406 3.390625-7.566406 7.566406 0 4.179688 3.390625 7.570312 7.566406 7.570312h219.648438c-26.167969 58.574219-3.492188 128.949219 54.625 160.597657h-305.378906c-3.320313 0-6.011719-2.691407-6.011719-6.011719v-358.070312c0-4.175782-3.390625-7.566407-7.570313-7.566407-4.175781 0-7.566406 3.390625-7.566406 7.566407v358.070312c0 11.664062 9.484375 21.148438 21.148438 21.148438h313.359374c5.550782 0 10.613282-2.152344 14.386719-5.660157 80.386719 25.183594 162.207031-35.371093 162.207031-119.324219 0-81.089843-76.527343-141.089843-155.445312-121.238281zm30.449219 231.085938c-89.832031 0-142.4375-103.347657-87.839844-175.734375 14.570313-19.402344 34.9375-33.203125 57.390625-39.671875 69.953125-20.300781 140.308594 32.546875 140.308594 105.558593 0 60.570313-49.277344 109.847657-109.859375 109.847657zm0 0"/><path d="m386.109375 294.210938c-51.113281 0-92.703125 41.585937-92.703125 92.703124 0 79.078126 93.636719 121.84375 153.371094 70.042969 3.160156-2.738281 3.5-7.519531.761718-10.675781-2.738281-3.15625-7.519531-3.496094-10.675781-.757812-49.976562 43.335937-128.320312 7.566406-128.320312-58.609376 0-42.773437 34.796875-77.570312 77.566406-77.570312 58.933594 0 96.277344 63.480469 68.011719 114.835938-2.015625 3.660156-.679688 8.261718 2.980468 10.277343 3.664063 2.019531 8.265626.683594 10.28125-2.980469 33.761719-61.347656-10.785156-137.265624-81.273437-137.265624zm0 0"/><path d="m425.726562 350.511719-53.378906 69.679687-34.828125-29.675781c-3.183593-2.710937-7.957031-2.328125-10.667969.851563-2.710937 3.183593-2.332031 7.960937.851563 10.667968l40.898437 34.847656c3.300782 2.808594 8.28125 2.28125 10.914063-1.160156l58.226563-76.007812c2.542968-3.316406 1.914062-8.066406-1.40625-10.609375-3.316407-2.542969-8.066407-1.914063-10.609376 1.40625zm0 0"/><path d="m164.351562 409.414062c4.179688 0 7.570313-3.386718 7.570313-7.566406 0-4.179687-3.390625-7.566406-7.570313-7.566406h-112.738281c-4.179687 0-7.566406 3.386719-7.566406 7.566406 0 4.179688 3.386719 7.566406 7.566406 7.566406zm0 0"/><path d="m227.617188 54.242188c-20.765626.273437-39.714844 12.058593-49.773438 29.90625-21.625-38.617188-77.898438-40.925782-96.660156-.414063-8.394532 18.121094-5.8125 38.96875 6.75 54.394531 20.964844 25.746094 4.101562 5.03125 80.445312 98.808594 4.863282 5.984375 14.015625 5.992188 18.898438 0l80.445312-98.808594c26.785156-32.886718 4.8125-83.886718-40.105468-83.886718zm-49.785157 170.328124-52.566406-64.554687h16.144531c3.230469 0 6.105469-2.050781 7.15625-5.101563l7.003906-20.324218 15.1875 39.644531c2.421876 6.3125 11.300782 6.535156 14.007813.316406l13.140625-30.1875c7.871094 20.378907 3.351562 17.246094 31.183594 17.246094zm78.15625-95.996093-14.570312 17.898437h-26.472657l-9.5625-24.753906c-2.46875-6.382812-11.351562-6.375-14-.292969l-13.109374 30.117188-16.011719-41.792969c-2.53125-6.613281-11.933594-6.398438-14.21875.238281l-12.027344 34.890625h-23.070313l-13.277343-16.304687c-8.878907-10.898438-10.695313-25.648438-4.753907-38.480469 15.238282-32.882812 63.496094-24.679688 73.65625 10.914062 2.65625 9.292969 15.855469 9.308594 18.515626-.007812 5.238281-18.359375 21.972656-31.378906 40.730468-31.621094 32.035156 0 46.835938 36.261719 28.171875 59.195313zm0 0"/></svg>