<svg xmlns:dc="http://purl.org/dc/elements/1.1/" xmlns:cc="http://creativecommons.org/ns#" xmlns:rdf="http://www.w3.org/1999/02/22-rdf-syntax-ns#" xmlns:svg="http://www.w3.org/2000/svg" xmlns="http://www.w3.org/2000/svg" xmlns:sodipodi="http://sodipodi.sourceforge.net/DTD/sodipodi-0.dtd" xmlns:inkscape="http://www.inkscape.org/namespaces/inkscape" viewBox="0 0 12.7 15.875" version="1.1" x="0px" y="0px"><g transform="translate(0,-284.29998)"><path style="" d="m 7.34235,296.38561 a 11.641666,11.641666 0 0 0 1.2886999,-3.47168 H 11.71255 a 5.8208333,5.8208333 0 0 1 -4.3702,3.47168 z" fill="#000000" stroke="none"/><path style="" d="m 5.7481499,295.88841 a 0.68339441,0.68339441 0 0 0 1.2037002,0 11.059583,11.059583 0 0 0 1.0850999,-2.97448 h -3.3739 a 11.059583,11.059583 0 0 0 1.0850999,2.97448 z" fill="#000000" stroke="none"/><path style="" d="m 5.3577501,296.38561 a 5.8208333,5.8208333 0 0 1 -4.3702002,-3.47168 h 3.0815 a 11.641666,11.641666 0 0 0 1.2887002,3.47168 z" fill="#000000" stroke="none"/><path style="" d="m 8.73115,288.96809 a 11.641666,11.641666 0 0 1 0,3.36375 h 3.1914 a 5.8208333,5.8208333 0 0 0 0,-3.36375 z" fill="#000000" stroke="none"/><path style="" d="m 8.14255,292.33184 a 11.059583,11.059583 0 0 0 0,-3.36375 H 4.5574501 a 11.059583,11.059583 0 0 0 0,3.36375 z" fill="#000000" stroke="none"/><path style="" d="m 3.96885,292.33184 a 11.641666,11.641666 0 0 1 0,-3.36375 H 0.7774499 a 5.8208333,5.8208333 0 0 0 0,3.36375 z" fill="#000000" stroke="none"/><path style="" d="m 7.34235,284.91434 a 11.641666,11.641666 0 0 1 1.2886999,3.47167 H 11.71255 a 5.8208333,5.8208333 0 0 0 -4.3702,-3.47167 z" fill="#000000" stroke="none"/><path style="" d="M 5.7481499,285.41153 A 11.059583,11.059583 0 0 0 4.66305,288.38601 h 3.3739 a 11.059583,11.059583 0 0 0 -1.0850999,-2.97447 0.68339441,0.68339441 0 0 0 -1.2037002,-10e-6 z" fill="#000000" stroke="none"/><path style="" d="m 0.9875499,288.38601 h 3.0815 a 11.641666,11.641666 0 0 1 1.2887002,-3.47167 5.8208333,5.8208333 0 0 0 -4.3702002,3.47167 z" fill="#000000" stroke="none"/></g><text x="0" y="27.7" fill="#000000" font-size="5px" font-weight="bold" font-family="'Helvetica Neue', Helvetica, Arial-Unicode, Arial, Sans-serif">Created by Phạm Thanh Lộc</text><text x="0" y="32.7" fill="#000000" font-size="5px" font-weight="bold" font-family="'Helvetica Neue', Helvetica, Arial-Unicode, Arial, Sans-serif">from the Noun Project</text></svg>