<?xml version="1.0" encoding="utf-8"?>
<!-- Generator: Adobe Illustrator 17.0.0, SVG Export Plug-In . SVG Version: 6.00 Build 0)  -->
<!DOCTYPE svg PUBLIC "-//W3C//DTD SVG 1.1//EN" "http://www.w3.org/Graphics/SVG/1.1/DTD/svg11.dtd">
<svg version="1.1" id="Layer_1" xmlns="http://www.w3.org/2000/svg" xmlns:xlink="http://www.w3.org/1999/xlink" x="0px" y="0px"
	 width="595.28px" height="841.89px" viewBox="0 0 595.28 841.89" enable-background="new 0 0 595.28 841.89" xml:space="preserve">
<path d="M248.958,314.045c6-50.45,15.114-58.171,65.921-62.641c28.847-2.542,57.677-3.59,86.536-3.899
	c-0.72-15.733-1.964-31.455-3.834-47.182c-6-50.45-15.114-58.171-65.921-62.641c-62.1-5.465-124.241-4.215-186.382-2.917
	c-21.079,0.441-42.241,2.738-63.129,5.75c-30.907,4.465-39.83,13.031-44.116,44.063c-9.173,66.499-9.102,133.224-0.19,199.74
	c2.482,18.525,7.608,30.169,17.323,37.056c0.077,0.048,0.149,0.101,0.22,0.149c0.839,0.577,1.697,1.131,2.601,1.643
	c7.917,4.721,18.555,7.262,32.949,8.715c8.429,0.857,16.864,1.577,25.305,2.179c-4.518,15.983-9.03,31.961-13.566,47.932
	c-1.792,6.31-5.221,12.971,1.197,18.37c7.34,6.173,13.537,0.673,19.716-2.965c5.125-3.018,10.233-6.078,15.317-9.173
	c23.704-14.477,47.599-28.645,71.005-43.58c9.34-5.953,18.87-8.661,29.841-8.56c1.923,0.018,3.84-0.03,5.756-0.024
	C243.404,395.408,244.118,354.72,248.958,314.045z"/>
<path d="M410.249,292.287c21.746,0,43.503,0.452,64.522,0.893c13.989,0.292,29.222,1.691,47.974,4.399
	c10.995,1.589,13.025,3.316,13.084,3.381c0.077,0.077,1.774,2.095,3.25,12.787c7.012,50.819,7.066,102.769,0.137,154.38
	c-1.482,11.06-3.774,13.733-4.548,14.311c-0.048,0.042-0.113,0.083-0.155,0.119c-0.101,0.071-0.179,0.125-0.256,0.173l-0.22,0.125
	l-0.208,0.125c-2.947,1.756-8.739,3.09-17.186,3.935c-6.608,0.667-13.239,1.238-19.692,1.703l-27.609,1.97l7.542,26.633
	l3.024,10.679c0.006,0.018,0.006,0.048,0.018,0.071c-1.31-0.798-2.607-1.595-3.911-2.375c-13.4-8.114-27.252-16.507-40.586-25.008
	c-10.989-7.006-22.638-10.405-35.61-10.405h-0.649c-2.322,0.024-4.625,0.03-6.947,0.03c-24.877,0-49.545-1.208-73.315-3.601
	c-12.935-1.316-16.948-3.453-18.192-4.607c-0.935-0.875-3.256-4.238-4.649-16.549c-5.816-51.164-6.179-96.769-1.107-139.438
	c2.167-18.227,4.471-23.787,6.024-25.24c2.322-2.167,11.251-3.953,26.532-5.304C351.959,293.293,378.247,292.287,410.249,292.287
	 M410.249,269.756c-28.246,0-56.486,0.756-84.714,3.238c-40.812,3.595-48.134,9.798-52.95,50.325
	c-5.744,48.253-4.387,96.507,1.083,144.641c3.351,29.496,13.382,38.05,42.955,41.039c25.157,2.536,50.343,3.726,75.583,3.726
	c2.381,0,4.768-0.006,7.149-0.03c0.143,0,0.304,0,0.446,0c8.62,0,16.138,2.173,23.52,6.875
	c18.805,11.995,37.991,23.389,57.04,35.014c4.084,2.488,8.179,4.941,12.293,7.364c3.345,1.964,6.697,4.607,10.328,4.607
	c1.762,0,3.59-0.613,5.512-2.232c5.155-4.34,2.387-9.691,0.952-14.757c-3.643-12.81-7.262-25.663-10.894-38.497
	c6.774-0.488,13.549-1.072,20.329-1.756c11.554-1.161,20.103-3.197,26.46-7.001c0.72-0.405,1.405-0.863,2.095-1.322
	c0.06-0.054,0.119-0.089,0.173-0.125c7.804-5.53,11.923-14.882,13.918-29.758c7.155-53.438,7.215-107.025-0.149-160.458
	c-3.441-24.93-10.614-31.806-35.425-35.389c-16.787-2.423-33.788-4.262-50.724-4.619
	C453.58,270.202,431.917,269.756,410.249,269.756L410.249,269.756z"/>
</svg>
