<?xml version="1.0" encoding="utf-8"?>
<!-- Generator: Adobe Illustrator 17.0.0, SVG Export Plug-In . SVG Version: 6.00 Build 0)  -->
<!DOCTYPE svg PUBLIC "-//W3C//DTD SVG 1.1//EN" "http://www.w3.org/Graphics/SVG/1.1/DTD/svg11.dtd">
<svg version="1.1" id="Layer_1" xmlns="http://www.w3.org/2000/svg" xmlns:xlink="http://www.w3.org/1999/xlink" x="0px" y="0px"
	 width="595.28px" height="841.89px" viewBox="0 0 595.28 841.89" enable-background="new 0 0 595.28 841.89" xml:space="preserve">
<g>
	<path d="M510.816,356.714c-0.25,10.989-16.513,19.853-36.574,19.853c-20.049,0-36.33-8.864-36.568-19.853
		c-10.406,0.952-20.031,1.268-28.228,3.595c15.864,14.513,22.96,38.14,22.96,76.452c0,4.024-0.28,7.816-0.792,11.423
		c0.655,0.006,1.322,0.006,1.982,0.006c3.125,0,6.34-0.024,9.62-0.024h62.058c3.262,0,6.477,0.024,9.608,0.024
		c28.698,0,50.635-1.476,50.635-31.472C565.516,356.714,541.485,359.518,510.816,356.714z"/>
	<path d="M474.248,364.584c27.752,0,50.23-41.723,50.23-69.463c0-27.746-22.472-50.236-50.23-50.236
		c-27.746,0-50.23,22.49-50.23,50.236C424.012,322.861,446.508,364.584,474.248,364.584z"/>
	<path d="M185.829,360.304c-8.197-2.333-17.829-2.643-28.228-3.595c-0.25,10.989-16.519,19.853-36.574,19.853
		s-36.33-8.864-36.568-19.853c-30.675,2.816-54.694,0.006-54.694,60.004c0,29.99,21.924,31.472,50.623,31.472
		c3.125,0,6.34-0.024,9.62-0.024h62.052c3.262,0,6.477,0.024,9.608,0.024c0.673,0,1.333,0,1.994-0.006
		c-0.506-3.607-0.792-7.399-0.792-11.423C162.869,398.443,169.97,374.817,185.829,360.304z"/>
	<path d="M121.026,364.584c27.758,0,50.23-41.723,50.23-69.463c0-27.746-22.478-50.236-50.23-50.236
		c-27.746,0-50.23,22.49-50.23,50.236C70.797,322.861,93.286,364.584,121.026,364.584z"/>
	<path d="M344.649,359.625c-0.321,14.12-21.234,25.514-47.021,25.514c-25.782,0-46.706-11.394-47.009-25.514
		c-39.437,3.601-70.32,0-70.32,77.13c0,38.568,28.181,40.467,65.088,40.467c4.024,0,8.155-0.03,12.37-0.03h79.768
		c4.203,0,8.328,0.03,12.358,0.03c36.901,0,65.1-1.893,65.1-40.467C414.982,359.625,384.081,363.227,344.649,359.625z"/>
	<path d="M268.001,357.196c3.703,3.209,7.608,5.911,11.679,7.983c5.703,2.893,11.721,4.566,17.96,4.566s12.269-1.673,17.977-4.578
		c4.072-2.066,7.977-4.768,11.667-7.977c4.994-4.34,9.626-9.566,13.757-15.394c13.013-18.358,21.186-42.402,21.186-61.361
		c0-35.675-28.901-64.594-64.582-64.594c-35.675,0-64.582,28.919-64.582,64.594c0,18.966,8.173,43.003,21.192,61.361
		C258.375,347.624,263.001,352.857,268.001,357.196z"/>
</g>
</svg>
