<?xml version="1.0" encoding="utf-8"?>
<!-- Generator: Adobe Illustrator 17.0.0, SVG Export Plug-In . SVG Version: 6.00 Build 0)  -->
<!DOCTYPE svg PUBLIC "-//W3C//DTD SVG 1.1//EN" "http://www.w3.org/Graphics/SVG/1.1/DTD/svg11.dtd">
<svg version="1.1" id="Layer_1" xmlns="http://www.w3.org/2000/svg" xmlns:xlink="http://www.w3.org/1999/xlink" x="0px" y="0px"
	 width="595.28px" height="841.89px" viewBox="0 0 595.28 841.89" enable-background="new 0 0 595.28 841.89" xml:space="preserve">
<g>
	<circle cx="97.626" cy="270.339" r="52.385"/>
	<path d="M146.439,470.353v-3.572c0-32.145,10.12-61.314,26.788-85.72c-15.477-25.597-43.455-42.265-75.601-42.265
		c-48.813,0-88.697,39.884-88.697,88.697v27.978c20.835,12.501,53.575,20.24,88.697,20.24
		C114.889,475.115,131.557,473.33,146.439,470.353z"/>
	<circle cx="497.654" cy="270.339" r="52.385"/>
	<path d="M497.654,338.201c-32.145,0-60.123,17.263-75.601,42.265c16.668,24.406,26.788,54.17,26.788,85.72v3.572
		c14.882,3.572,31.55,5.358,48.813,5.358c35.122,0,67.862-7.739,88.697-20.24v-27.978
		C586.946,378.085,546.467,338.201,497.654,338.201z"/>
	<path d="M379.193,232.837c0-45.241-36.907-81.553-81.553-81.553s-81.553,36.907-81.553,81.553
		c0,45.241,36.907,81.553,81.553,81.553S379.193,278.078,379.193,232.837z"/>
	<path d="M433.959,466.782c0-75.005-61.314-136.319-136.319-136.319s-136.319,61.314-136.319,136.319v43.455
		c31.55,20.24,82.149,32.145,136.319,32.145s104.769-11.906,136.319-32.145V466.782z"/>
</g>
</svg>
