<?xml version="1.0" encoding="utf-8"?>
<!-- Generator: Adobe Illustrator 17.0.0, SVG Export Plug-In . SVG Version: 6.00 Build 0)  -->
<!DOCTYPE svg PUBLIC "-//W3C//DTD SVG 1.1//EN" "http://www.w3.org/Graphics/SVG/1.1/DTD/svg11.dtd">
<svg version="1.1" id="Layer_1" xmlns="http://www.w3.org/2000/svg" xmlns:xlink="http://www.w3.org/1999/xlink" x="0px" y="0px"
	 width="595.3px" height="841.9px" viewBox="0 0 595.3 841.9" style="enable-background:new 0 0 595.3 841.9;" xml:space="preserve"
	>
<g>
	<path d="M53.2,698.8l137-137c41.4,33.9,94.4,54.4,152.2,54.4c132.5,0,240.1-107.5,240.1-240.1c0-132.7-107.5-240.1-240.1-240.1
		S102.3,243.5,102.3,376.2c0,57.8,20.3,110.7,54.3,152.1l-136.8,137c-9.3,9.3-9.3,24.3,0,33.6C29,708.1,44.1,708.1,53.2,698.8z
		 M150.1,376.2c0-106.2,86.3-192.4,192.3-192.4S534.8,270,534.8,376.2c0,106-86.4,192.4-192.4,192.4S150.1,482.2,150.1,376.2z"/>
</g>
</svg>
