<?xml version="1.0" encoding="utf-8"?>
<!-- Generator: Adobe Illustrator 17.0.0, SVG Export Plug-In . SVG Version: 6.00 Build 0)  -->
<!DOCTYPE svg PUBLIC "-//W3C//DTD SVG 1.1//EN" "http://www.w3.org/Graphics/SVG/1.1/DTD/svg11.dtd">
<svg version="1.1" id="Capa_1" xmlns="http://www.w3.org/2000/svg" xmlns:xlink="http://www.w3.org/1999/xlink" x="0px" y="0px"
	 width="841.89px" height="595.28px" viewBox="0 0 841.89 595.28" enable-background="new 0 0 841.89 595.28" xml:space="preserve">
<g>
	<g>
		<path stroke="#FFFFFF" stroke-width="7" stroke-miterlimit="10" d="M674.612,94.702c-42.586,0-77.231-34.646-77.231-77.229V0
			H244.507v17.472c0,42.586-34.646,77.229-77.229,77.229h-17.472v116.194c0,83.496,25.152,163.895,72.739,232.503
			c47.588,68.607,114.076,120.336,192.279,149.591l6.121,2.29l6.123-2.29c78.204-29.255,144.693-80.982,192.278-149.591
			c47.587-68.608,72.739-149.007,72.739-232.503V94.702H674.612z M657.141,210.895h-0.001c0,76.345-22.998,149.855-66.51,212.586
			c-42.261,60.932-100.834,107.305-169.686,134.426c-68.851-27.122-127.425-73.494-169.686-134.426
			c-43.51-62.73-66.507-136.241-66.507-212.586v-82.607c47.89-7.522,85.821-45.454,93.344-93.344h285.703
			c7.521,47.89,45.453,85.821,93.344,93.344L657.141,210.895L657.141,210.895z"/>
	</g>
</g>
<path stroke="#FFFFFF" stroke-width="27" stroke-miterlimit="10" d="M337.131,239.357c-12.064-12.064-32.421-12.064-45.238,0
	c-12.064,12.064-12.064,32.421,0,45.238l79.921,79.921c6.032,6.032,14.326,9.048,22.619,9.048h0.754
	c8.294,0,16.587-3.77,22.619-10.556l140.239-153.057c12.064-12.818,11.31-33.175-2.262-44.484
	c-12.818-12.064-33.175-11.31-44.484,2.262l-117.62,127.421L337.131,239.357z"/>
</svg>
